<?xml version="1.0" standalone="no"?>
<!DOCTYPE svg PUBLIC "-//W3C//DTD SVG 20010904//EN"
 "http://www.w3.org/TR/2001/REC-SVG-20010904/DTD/svg10.dtd">
<svg version="1.0" xmlns="http://www.w3.org/2000/svg"
 width="300.000000pt" height="300.000000pt" viewBox="0 0 300.000000 300.000000"
 preserveAspectRatio="xMidYMid meet">

<g transform="translate(0.000000,300.000000) scale(0.100000,-0.100000)"
fill="#000000" stroke="none">
<path d="M0 1500 l0 -1500 1500 0 1500 0 0 1500 0 1500 -1500 0 -1500 0 0
-1500z m1721 766 c14 -15 10 -38 -10 -65 l-18 -23 -94 156 c-51 86 -96 156
-99 156 -5 0 -197 -311 -205 -332 -5 -13 19 -42 137 -167 39 -40 73 -69 77
-63 11 17 434 462 437 460 8 -9 63 -333 57 -339 -5 -4 -18 -10 -30 -13 -25 -8
-25 -8 -49 122 l-16 94 -54 -53 c-30 -29 -54 -57 -54 -60 0 -13 101 -174 108
-174 4 1 34 13 67 28 68 32 176 62 258 72 l57 7 -46 -93 c-25 -52 -68 -142
-96 -201 l-52 -108 -46 0 -45 0 -115 190 c-63 104 -121 198 -128 207 -12 16
-25 6 -138 -112 l-124 -130 -112 120 c-62 66 -154 162 -204 214 l-91 93 -24
-128 c-14 -72 -22 -134 -17 -140 5 -7 1 -21 -10 -33 -13 -18 -23 -21 -45 -16
-15 4 -27 10 -27 13 0 10 82 437 85 440 1 2 43 -41 93 -95 50 -53 93 -95 95
-93 2 3 52 86 112 185 60 99 117 193 128 208 l19 28 105 -173 c57 -95 109
-177 114 -182z m-510 -240 c-10 -17 -27 -46 -37 -65 l-19 -33 25 -17 c90 -60
167 -127 267 -234 l53 -56 101 104 c123 126 201 184 224 165 27 -22 16 -44
-46 -90 -73 -54 -203 -187 -245 -252 l-31 -48 -58 75 c-66 87 -187 203 -269
259 -31 21 -58 37 -60 35 -1 -2 -29 -48 -61 -101 l-59 -98 -46 0 -45 0 -97
198 c-53 108 -94 199 -92 201 5 5 139 -17 187 -31 37 -11 45 -26 31 -61 -5
-14 -11 -14 -52 -2 -25 8 -48 12 -51 9 -3 -3 23 -62 58 -131 56 -113 64 -124
75 -107 7 11 41 66 76 124 35 58 81 133 103 168 l40 63 23 -22 c23 -22 24 -22
5 -53z m-141 -548 c0 -7 -11 -69 -25 -137 -30 -149 -30 -141 -5 -141 25 0 27
-26 3 -32 -29 -7 -68 7 -71 25 -3 16 46 275 55 290 7 12 43 8 43 -5z m1090
-25 c-4 -21 -11 -51 -15 -68 -8 -29 -8 -30 12 -12 22 20 83 23 101 5 22 -22
14 -65 -18 -92 -30 -25 -31 -25 -15 -63 9 -20 23 -45 32 -55 15 -17 15 -20 -1
-36 -16 -16 -18 -16 -37 8 -32 40 -74 133 -61 138 22 7 62 44 62 57 0 19 -16
27 -39 20 -22 -7 -56 -80 -66 -142 -6 -37 -10 -43 -31 -43 -13 0 -24 6 -24 13
0 6 14 77 30 157 17 80 30 146 30 148 0 1 11 2 24 2 22 0 23 -3 16 -37z m-156
-33 c-6 -26 -4 -30 15 -30 30 0 24 -34 -7 -38 -13 -2 -24 -12 -27 -25 -15 -65
-25 -113 -25 -119 0 -5 14 -8 30 -8 43 0 39 -26 -5 -34 -40 -8 -75 7 -75 32 0
9 7 44 15 77 18 77 18 75 -5 75 -13 0 -20 7 -20 20 0 14 7 20 24 20 18 0 27 8
35 30 6 20 17 30 30 30 17 0 20 -5 15 -30z m-730 -49 c24 -21 19 -115 -9 -153
-48 -63 -127 -74 -161 -22 -21 30 -13 107 14 144 40 55 111 70 156 31z m469 1
c42 -37 6 -166 -56 -195 -47 -22 -69 -21 -102 5 -26 20 -27 25 -22 77 7 63 29
99 77 123 37 19 74 15 103 -10z m-218 6 c3 -3 1 -25 -4 -49 -6 -24 -11 -83
-11 -131 0 -110 -13 -128 -93 -128 -61 0 -92 16 -81 43 4 12 12 16 23 11 32
-14 82 -16 96 -4 10 8 15 31 15 64 l0 51 -22 -32 c-57 -81 -137 -36 -123 69 6
38 15 57 42 85 34 34 38 35 94 31 32 -2 61 -7 64 -10z m-115 -443 c0 -8 -7
-15 -15 -15 -8 0 -15 7 -15 15 0 8 7 15 15 15 8 0 15 -7 15 -15z m511 3 c1 -7
2 -29 4 -48 1 -19 4 -42 6 -50 2 -8 -3 -15 -11 -15 -11 0 -16 15 -20 58 -3 32
-3 60 -1 63 9 8 21 4 22 -8z m-905 -43 c0 -22 4 -47 8 -56 12 -27 -21 -18 -35
10 l-13 26 -4 -28 c-6 -49 -27 -24 -30 37 l-3 57 38 -3 c37 -3 38 -4 39 -43z
m662 18 c12 -12 13 -18 4 -21 -16 -5 -16 -39 1 -45 9 -4 9 -8 -2 -15 -23 -16
-39 -3 -43 36 -8 61 7 78 40 45z m-508 -43 c0 -36 -2 -40 -25 -40 -14 0 -28
-1 -31 -2 -14 -6 -27 30 -20 55 5 23 12 27 41 27 34 0 35 -1 35 -40z m100 8
c0 -37 9 -33 12 5 4 41 28 33 28 -8 0 -28 -5 -38 -22 -44 -35 -13 -48 -2 -48
40 0 28 4 39 15 39 10 0 15 -10 15 -32z m143 -5 c5 -45 1 -54 -18 -46 -20 7
-21 83 -1 83 8 0 16 -14 19 -37z m149 -4 c2 -21 0 -39 -4 -39 -5 0 -11 0 -15
0 -5 0 -9 11 -10 26 -3 38 -13 43 -13 6 0 -17 -5 -34 -10 -37 -11 -7 -15 3
-24 51 -5 31 -4 32 33 32 38 1 39 0 43 -39z m263 21 c14 -45 -18 -80 -56 -60
-19 11 -24 35 -13 64 9 24 61 21 69 -4z m255 -19 c0 -33 -4 -39 -24 -43 -31
-6 -56 8 -56 32 0 37 12 50 46 50 33 0 34 -1 34 -39z m142 4 c5 -41 -7 -68
-21 -46 -5 7 -6 21 -4 31 3 10 0 21 -6 24 -7 5 -11 -4 -11 -23 0 -16 -5 -33
-11 -36 -14 -9 -15 -7 -22 43 l-5 42 38 0 c36 0 38 -2 42 -35z m-601 -342
c-34 -36 -74 -86 -90 -109 l-29 -44 -43 58 c-24 31 -63 78 -87 105 -25 26 -41
47 -37 47 4 0 43 -20 86 -45 l78 -45 88 50 c48 27 89 50 91 50 2 0 -24 -30
-57 -67z"/>
<path d="M2127 1978 c-37 -8 -187 -67 -187 -73 0 -3 99 -166 106 -174 4 -5
125 240 122 248 -2 4 -20 4 -41 -1z"/>
<path d="M1178 1343 c-21 -23 -41 -98 -33 -123 9 -29 51 -26 71 5 9 14 17 48
18 77 1 46 -2 53 -20 56 -11 2 -27 -5 -36 -15z"/>
<path d="M1641 1334 c-21 -27 -38 -105 -26 -123 11 -19 52 -12 68 13 20 29 31
88 22 115 -9 29 -39 26 -64 -5z"/>
<path d="M1411 1343 c-21 -18 -44 -104 -34 -130 7 -19 27 -16 48 7 20 22 56
120 49 132 -9 14 -41 9 -63 -9z"/>
<path d="M970 904 c0 -8 5 -12 10 -9 6 3 10 10 10 16 0 5 -4 9 -10 9 -5 0 -10
-7 -10 -16z"/>
<path d="M1120 869 c0 -11 5 -17 10 -14 6 3 10 13 10 21 0 8 -4 14 -10 14 -5
0 -10 -9 -10 -21z"/>
<path d="M1780 870 c0 -11 5 -20 10 -20 6 0 10 9 10 20 0 11 -4 20 -10 20 -5
0 -10 -9 -10 -20z"/>
<path d="M2030 869 c0 -11 5 -17 10 -14 6 3 10 13 10 21 0 8 -4 14 -10 14 -5
0 -10 -9 -10 -21z"/>
</g>
</svg>
